<?xml version="1.0" encoding="utf-8"?>
<!-- Designed by Vexels.com - 2016 All Rights Reserved - https://vexels.com/terms-and-conditions/  -->

<svg version="1.0" id="Capa_1" xmlns="http://www.w3.org/2000/svg" xmlns:xlink="http://www.w3.org/1999/xlink" x="0px" y="0px"
	 width="1200px" height="1200px" viewBox="0 0 1200 1200" enable-background="new 0 0 1200 1200" xml:space="preserve">
<g>
	<path fill="#8C7C38" d="M813.033,1080.407c-1.098-2.024-112.586-209.362-136.743-270.453l-4.493-11.337l-9.848,7.207
		c-18.285,13.407-33.707,19.421-44.562,17.314c-7.089-1.35-13.154-6.162-18.655-14.941l-0.594-0.793
		c-108.656-130.76-137.144-270.039-140.213-286.24c-24.128-73.443,29.406-92.224,31.706-92.988l8.809-2.943l-93.931-297.45
		c-1.986-6.504-5.797-10.923-10.188-11.82c-2.683-0.577-5.383,0.349-7.148,2.448c-1.69,2.009-3.959,6.798-0.296,16.134
		l88.265,279.535c-6.51,3.439-16.387,9.854-24.928,20.324c-13.199,16.223-25.729,45.325-10.53,91.267
		c0.252,1.505,26.605,152.396,143.446,293.09c8.112,12.835,18.449,20.538,30.713,22.889c14.31,2.7,30.504-1.831,49.455-13.887
		c27.894,64.433,109.931,218.267,127.519,251.107c-22.274,4.323-81.593,8.439-157.89-45.075
		c-69.595-48.959-201.117-191.885-278.201-384.972c-39.165-97.956-56.634-208.318-56.634-357.739
		c1.319-55.774,13.451-95.68,36.703-121.609c5.116-4.279,7.296-8.335,6.466-12.071c-0.609-2.774-2.803-4.858-6.006-5.725
		c-3.678-1.001-9.032-0.282-12.057,3.01c-28.116,30.046-42.501,74.556-43.954,136.172c0,152.098,17.884,264.654,57.969,364.953
		c78.625,196.891,213.44,343.147,284.873,393.412c60.371,42.323,110.644,51.205,142.185,51.205c27.183,0,43.347-6.546,44-6.821
		l9.728-3.959l-4.967-9.231V1080.407z"/>
	<path fill="#8C7C38" d="M522.212,423.809l9.002-3.588c31.081-12.331,52.452-33.449,63.514-62.751
		c27.034-71.613-16.98-167.87-31.127-195.661c-44.548-87.738-131.419-57.146-132.265-56.819l-8.319,3.04l2.758,9.388
		c11.167,37.503,68.113,228.062,93.1,297.249L522.212,423.809z M446.344,120.384c20.02-4.323,70.84-8.394,100.454,49.967
		c13.259,26.055,54.617,116.069,30.312,180.46c-8.023,21.228-22.778,37.326-43.88,47.892
		C507.397,324.63,456.354,154.017,446.344,120.384z"/>
	<path fill="#8C7C38" d="M841.683,806.52l-1.602-3.054c-1.824-2.677-45.69-64.954-133.346-15.252l-7.963,4.53l152.106,285.304
		l8.748-6.428c3.634-2.648,88.502-65.599,52.052-132.198C892.845,905.145,867.99,857.95,841.683,806.52z M856.987,1049.427
		L724.144,800.285c67.238-33.38,98.617,11.173,99.921,13.131c6.63,13.014,41.212,80.695,71.078,135.075
		C917.654,989.568,875.568,1033.056,856.987,1049.427z"/>
</g>
</svg>
